<svg fill="none" xmlns="http://www.w3.org/2000/svg" viewBox="0 0 660 660"><mask id="a" style="mask-type:alpha" maskUnits="userSpaceOnUse" x="0" y="0" width="660" height="660"><path fill="#D9D9D9" d="M0 0h660v660H0z"/></mask><g mask="url(#a)"><circle cx="330.24" cy="330.24" r="330" fill="#FBCE51"/><g style="mix-blend-mode:overlay"><path d="m472.78 613.3-.4-.82 1.5-1.02-4.17-8.35-.34 2.76-1.9 8.25.18.45 1.56-.5.4.82-4.6 2.34-.4-.82 1.26-.89-5.15-10.44-1.46.52-.4-.82 4.7-2.3.4.81-1.36.87 4.25 8.47.28-2.58 1.96-8.43-.35-.6-1.68.56-.4-.82 4.7-2.3.4.81-1.36.86 5.15 10.45 1.44-.43.39.82-4.6 2.33ZM461.4 618.5c-.5.38-.86.58-1.23.8-.36.2-.72.41-1.06.52-1.39.65-2.59.94-3.56.78a2.55 2.55 0 0 1-2.1-1.68 3.37 3.37 0 0 1-.12-2.58c.32-.83.9-1.49 1.65-2-1.03.43-1.96.49-2.82.26a3.2 3.2 0 0 1-1.78-1.7c-.58-1.27-.6-2.3-.14-3.3.47-1 1.51-1.83 3.15-2.62.7-.32 1.37-.55 1.9-.6a6.77 6.77 0 0 1 1.38-.25c.31-.02.53-.06.62-.03l1 3.11-.82.4-1.49-2.03c-.7-.09-1.46.12-2.5.55-.78.3-1.22.8-1.4 1.46-.18.66-.07 1.4.3 2.32.32.7.79 1.23 1.43 1.5.63.27 1.47.2 2.5-.24l1.16-.5.46.93-1.03.43c-.46.19-.85.5-1.26.9-.32.42-.54.87-.66 1.34-.04.5 0 1.12.25 1.7.3.8.8 1.23 1.36 1.38.57.15 1.22.02 2.01-.27.48-.28.94-.47 1.23-.8.3-.32.47-.58.52-.77l-.36-1.73 1.06-.53 1.34 2.6c-.12.07-.48.28-.99.65ZM446.18 624l1.51-.31.37.91-2.38.9c-.36.2-.91.36-1.5.61-.57.25-.93.46-1.17.6-1.59.6-2.85.77-3.7.54a2.63 2.63 0 0 1-1.86-1.82c-.3-.8-.38-1.63-.08-2.37.2-.76.78-1.42 1.5-1.83-1.12.4-2.08.56-2.9.23a2.98 2.98 0 0 1-1.84-1.91 3.55 3.55 0 0 1 .18-3.32c.59-1.06 1.75-1.97 3.67-2.68.46-.18.8-.3 1.22-.38.9-.28 1.47-.53 1.68-.57l2.29-.92.27.89-1.42.74 4.16 10.69Zm-7.9-9.66c-1.16.5-1.9 1.02-2.3 1.73-.4.7-.29 1.45-.02 2.34.37.91.84 1.45 1.48 1.72s1.48.19 2.51-.25c1.15-.5 1.92-.7 2.28-.91l-1.96-5.21c-.4-.01-.98.24-2 .58Zm3.26 6.07-.91.37c-.8.3-1.33.76-1.6 1.4-.27.64-.26 1.36.13 2.18.3.79.76 1.32 1.3 1.57.55.25 1.39.17 2.42-.27.46-.18.82-.4 1.28-.57l.36-.21-1.85-4.88c-.24.14-.58.25-1.13.41ZM431.34 630.72l-1.92.7-8.4-10.8-1.18.19-.27-.89 4.7-1.59.27.89-1.4.64 1.71 2.4 5.16-1.78-.05-2.86-1.6.28-.27-.89 4.25-1.4.27.88-1.06.53-.2 13.7Zm-1.98-2.47.95 1.38-.14-1.77-.15-6.26-4.5 1.55 3.84 5.1ZM416.73 621.4a5.2 5.2 0 0 1 2.78 1.77c.78.92 1.4 2 1.74 3.42.36 1.31.43 2.56.2 3.82a5.47 5.47 0 0 1-1.63 3.02 7.61 7.61 0 0 1-3.04 1.84c-.89.27-2.06.47-3.4.51l-.62.04-.75-3.26 1.22-.38 1.16 2.14c.19.05.57.15.97.16.4 0 .96-.15 1.6-.28.77-.2 1.4-.65 1.86-1.24a4.1 4.1 0 0 0 .83-2.32 10.26 10.26 0 0 0-1.73-6.07 5.36 5.36 0 0 0-1.98-1.75 3.73 3.73 0 0 0-2.5-.16c-.65.13-1.13.41-1.37.55-.24.14-.54.47-.7.73l-.23 1.97-1.17.2-.32-2.63c.22-.05.58-.25 1.06-.53.39-.3.75-.52 1.2-.7.37-.2.92-.36 1.47-.52a4.64 4.64 0 0 1 3.35-.33ZM402.64 635.96a6.93 6.93 0 0 1-1.62 2.62c-.8.7-1.64 1.2-2.6 1.34-1.2.3-2.3.2-3.22-.14a5.56 5.56 0 0 1-2.45-1.88 7.48 7.48 0 0 1-1.45-3.35c-.3-1.5-.35-2.84-.14-4a6.2 6.2 0 0 1 1.53-3.06 5.57 5.57 0 0 1 2.77-1.6c1.2-.3 2.32-.3 3.34.08 1.02.37 1.77.98 2.47 1.78.68.9 1.21 1.96 1.45 3.35l2.92-.65-1.22-5.32-1.58.2-.17-.87 5-1.2.18.86-1.46.52 2.67 11.31 1.46-.12.18.86-4.9 1.14-.17-.86 1.47-.53-1.14-4.89-2.95.74c.03 1.44-.09 2.63-.37 3.67Zm-2.07.87c.43-1.2.43-2.73-.03-4.8-.45-1.74-1.1-3.14-2-3.99a3.37 3.37 0 0 0-3.2-.96 3.08 3.08 0 0 0-2.3 2.13c-.4 1.12-.33 2.77.13 4.83.45 1.75 1 3.12 1.9 3.97a2.83 2.83 0 0 0 3.01.9 2.88 2.88 0 0 0 2.5-2.08ZM381.37 635.15c-.57-.56-1.39-1.29-2.26-2.23-.63-.68-1-1.19-1.33-1.48-.33-.3-.6-.47-.78-.52l-.7-.08-.17-.86 2.25-.42c.31-.01.67.18 1.06.6.4.4 1.04 1.09 1.71 1.98a27.14 27.14 0 0 0 2.04 2.28c.47.53.92.75 1.35.67l1.17-.2-.93-5.24-1.65.07-.18-.87 5.03-.9.15.97-1.44.43 2.03 11.44h1.52l.16.96-4.91.82-.1-1.15 1.46-.52-.9-5.34-1.61.29-2.82 5.96 1.55-.1.15.97-4.5.83-.15-.96 1.44-.43 3.06-6.1c-.5-.04-1.12-.4-1.7-.87ZM373.01 630.98c1 .47 1.72 1.17 2.25 2.23.56.96.95 2.19 1.19 3.58a7.6 7.6 0 0 1-.33 3.88 6.68 6.68 0 0 1-1.86 2.76 6.27 6.27 0 0 1-3.1 1.31c-1.92.3-3.53-.13-4.66-1.25a7.64 7.64 0 0 1-2.16-4.86 7.96 7.96 0 0 1 .33-3.88 7.07 7.07 0 0 1 1.88-2.86 6.94 6.94 0 0 1 3.1-1.3 5.84 5.84 0 0 1 3.36.39Zm.78 10.8c.52-1.19.7-2.66.46-4.77a7.97 7.97 0 0 0-1.6-4.3 3.04 3.04 0 0 0-3.04-1.22c-1.17.2-2.04.78-2.56 1.96a8.8 8.8 0 0 0-.46 4.77c.2 1.89.76 3.26 1.62 4.2a3.2 3.2 0 0 0 3.04 1.22c1.12 0 2.01-.68 2.54-1.86ZM361.64 644.53l1.5.1.06.93-2.51.25c-.4-.01-.96.15-1.58.18-.65.13-1.05.13-1.27.17-1.67.17-2.96.02-3.74-.49a2.94 2.94 0 0 1-1.32-2.29 3.9 3.9 0 0 1 .52-2.3 3.54 3.54 0 0 1 2-1.4 4.44 4.44 0 0 1-2.9-.58 2.8 2.8 0 0 1-1.23-2.26 3.98 3.98 0 0 1 1.06-3.18c.85-.9 2.22-1.44 4.3-1.6.43-.09.83-.08 1.33-.05.94-.05 1.56-.1 1.75-.04l2.5-.25.06.94-1.5.3.97 11.57Zm-4.99-11.42c-1.24.08-2.15.44-2.62 1.03-.55.57-.76 1.33-.6 2.28.05.93.37 1.63.89 1.98.52.34 1.37.57 2.43.44a13.1 13.1 0 0 0 2.41-.27l-.46-5.52c-.38-.1-1-.06-2.05.06Zm1.56 6.73-1.05.13c-.84.08-1.54.4-1.88.92a3.31 3.31 0 0 0-.46 2.12c.08.84.3 1.5.82 1.85.52.34 1.28.55 2.33.42.43-.09.94-.05 1.4-.24l.42-.09-.43-5.2c-.31.01-.63.03-1.15.1ZM332.29 647.26l-.06-.93 1.6-.29-.35-11.6-1.79-.17-.05-.93 5.23-.13.05.93-1.58.19.33 11.7 5.95-.14-.33-11.7-1.7-.15-.05-.93 5.23-.13.06.93-1.49.22.36 11.6 1.57.22.05.93-13.03.38ZM327.88 634.06a5.47 5.47 0 0 1 1.96 2.56c.44 1.04.6 2.3.63 3.74a8.5 8.5 0 0 1-.9 3.73 6.14 6.14 0 0 1-5.47 3.32 5.5 5.5 0 0 1-4.39-1.89c-.98-1.28-1.45-2.93-1.46-5.18a7.68 7.68 0 0 1 .92-3.83 6.48 6.48 0 0 1 2.31-2.53 6.28 6.28 0 0 1 3.29-.86c1.21.02 2.26.3 3.1.94Zm-.76 10.8c.69-1.04 1.1-2.56 1.13-4.59a9.14 9.14 0 0 0-.95-4.43 3.16 3.16 0 0 0-2.81-1.67 3.23 3.23 0 0 0-2.87 1.58c-.69 1.03-1.12 2.65-1.15 4.68-.01 1.93.23 3.32.95 4.43a3.16 3.16 0 0 0 2.81 1.67 4.28 4.28 0 0 0 2.9-1.67ZM312.37 637.95c.37-1.73.8-2.94 1.43-3.8.31-.42.6-.75.97-.95.36-.21.79-.3 1.2-.3.59.06 1 .07 1.28.15v1.52c-.29-.07-.79-.1-1.38-.16-.2-.05-.4-.01-.65.13-.24.14-.39.3-.53.47-1.1 1.44-1.7 4.43-1.99 8.94l-.1 1.5 2.14.37-.03.9-10.83-.65.04-.91 1.77-.14.77-11.6-1.86-.3.04-.9 5.7.4-.04.9-1.96.1-.77 11.6 3.82.2.14-1.68c.28-2.17.5-4.15.84-5.79ZM300.5 644.65l1.51.4-.13.89-9.5-1.02.07-2.94 1.1.1.32 1.81 4.62.63.59-5.24-3.07-.31-.41 1.52-1-.07.43-4.26 1 .06.07 1.65 3.04.4.57-5.54-5.29-.4-1.2 2.22-1.1-.5.87-3.23 10.3 1.13-.14.88h-1.53l-1.13 11.82ZM285.06 642.96l3.17.34 1.2-3.75 1.17.2-1.01 4.93-11.55-1.77.51-4.95 1.17.2.05 4 3.22.55 1.7-11.67-2.6-.59.14-.88 7.04 1.07-.13.88-2.4-.13-1.68 11.57ZM271.73 633.78l.88.14c.33-.12.75-.51 1.09-1.03.34-.52.93-1.18 1.44-1.96.51-.78.98-1.37 1.3-1.8.31-.42.55-.56.74-.5l2.52.47-.13.88-.74.1c-.22.05-.43.1-.72.42-.27.24-.7.73-1.17 1.32-.61.75-1.07 1.34-1.49 1.74-.43.5-.8.7-1.25.89.8.41 1.37.97 1.69 1.67.32.7.4 1.53.24 2.51-.28 1.45-.94 2.4-1.86 2.76-1 .34-2.25.42-3.89.08l-1.33-.36-1.33-.35-2.62-.5.14-.88 1.6.12 2.24-11.42-1.69-.55.14-.88 5.42 1.05-.13.88-1.79-.18-.9 4.86 1.6.52Zm-2.55 6.45 1.43.38c.97.16 1.7.15 2.3-.2.6-.34.96-.96 1.15-2.03.16-.98.08-1.81-.37-2.44-.44-.63-1.05-1-2-1.25-.98-.16-1.64-.34-1.95-.32l-1.1 5.61.54.25ZM258.6 637.9l3.19.66 1.5-3.68 1.23.33-1.49 4.8-11.29-2.72.92-4.95 1.14.3-.35 3.99 3.13.84 2.68-11.5-2.54-.8.23-.85 6.99 1.67-.24.86-2.45-.36-2.65 11.42ZM246.6 622.26c.8.83 1.23 1.86 1.43 3.03.2 1.18.05 2.46-.33 3.89a7.16 7.16 0 0 1-1.9 3.26 6.57 6.57 0 0 1-3 1.74c-1.2.29-2.3.2-3.54-.13-.94-.26-1.94-.73-3.2-1.37l-.54-.25 1.15-3.15 1.24.33-.23 2.38c.14.25.4.42.75.61.35.2.9.45 1.47.6.76.2 1.48.2 2.24-.01a3.87 3.87 0 0 0 1.94-1.52 7.8 7.8 0 0 0 1.38-2.89c.3-1.14.5-2.2.46-3.24a5.57 5.57 0 0 0-.72-2.63 3.19 3.19 0 0 0-2.05-1.47 6.99 6.99 0 0 0-1.54-.31c-.4 0-.75.1-.99.25l-1.22 1.5-1.08-.5 1.16-2.43c.28.07.69.08 1.19.11.5.04.9.04 1.31.05.4 0 .98.16 1.55.31a5.9 5.9 0 0 1 3.07 1.84ZM228.16 630.26l.32-.83 1.84.39 3.08-8.85-2.18 1.65-7.2 4.49-.14.48 1.55.71-.33.83-4.84-1.7.33-.83 1.45.29 3.76-11.01-1.44-.7.32-.83 4.94 1.73-.33.83-1.64-.33-3.1 8.94 2.05-1.59 7.42-4.53.18-.66-1.63-.75.32-.83 4.94 1.73-.33.83-1.54-.3-3.77 11 1.35.67-.32.83-5.06-1.66ZM209.07 623.2l1.65-4.64 1.21.42-.9 3.74 3.75 1.6 4.36-10.94-2.99-1.41.33-.83 6.83 2.64-.33.83-2-.53-4.2 10.78 1.76.99-.32.83-9.15-3.47ZM206.53 620.9l1.2.83-.32.83-4.65-2.06.33-.83 1.52.4 2.03-4.54-6.01-2.63-2.04 4.55 1.3.85-.32.83-4.55-2.03.32-.83 1.43.38 4.69-10.66-1.33-.76.33-.83 4.55 2.03-.33.83-1.5-.5-2.25 5 6.02 2.63 2.25-5-1.41-.79.32-.83 4.74 2.09-.33.83-1.4-.48-4.6 10.69ZM188.82 614.01l-1.8-.89 1.7-13.6-.94-.66.42-.8 4.4 2.2-.41.8-1.5-.5-.45 2.83 4.85 2.42 2-2.11-1.4-.88.42-.8 3.95 1.97-.42.8-1.11-.4-9.71 9.62Zm.24-3.2-.34 1.65 1.17-1.32 4.37-4.53-4.2-2.15-1 6.36ZM181.5 600.24a13.96 13.96 0 0 1 2.92-2.89c.48-.28.82-.39 1.25-.48.4 0 .78.11 1.23.33.55.25.88.54 1.14.71l-.57 1.38c-.26-.17-.62-.37-1.23-.74a.63.63 0 0 0-.57-.15c-.22.04-.43.09-.68.23-1.54.8-3.42 3.26-5.7 7.23l-.76 1.32 1.79 1.3-.42.8-9.39-5.26.42-.8 1.66.64 5.69-10.2-1.56-1.02.42-.8 5.06 2.78-.42.8-1.73-.77-5.66 10.1 3.29 1.8.81-1.52c.89-1.8 1.94-3.45 3.02-4.8ZM153.46 593.54l.51-.78 1.64.74 6.2-9.85-1.34-1.07.51-.78 4.6 2.97-.5.78-1.55-.72-6.2 9.85 1.34 1.07-.51.78-4.7-3Zm12.81 1.6a5.61 5.61 0 0 1-2.41-2.79c-.34-1-.16-2.08.55-3.21a4.06 4.06 0 0 1 2.9-2.07c1.18-.2 2.41.13 3.73.9.17.14.36.19.53.34.16.14.32.29.51.34.6.46 1.11.8 1.54 1.12l2.17 1.4-.52.78-1.44-.7-6.2 9.85 1.15 1.02-.52.78-4.53-2.84.51-.78 1.73.77 2.3-3.66-2-1.25Zm5.34-5.5a4 4 0 0 0-.87-.54c-.87-.54-1.73-.77-2.5-.56-.76.2-1.42.74-2.08 1.68-.54.87-.74 1.63-.54 2.4.2.77.74 1.42 1.62 1.96l1.65 1.05 3.36-5.3c-.21-.37-.38-.52-.64-.69ZM147.02 587.53l1.03 1.1-.51.77-4.08-3.02.51-.78 1.42.79 3.03-4.08-5.28-3.86-3.03 4.08 1.03 1.09-.51.78-3.98-3 .51-.78 1.35.66 6.89-9.36-1.06-1 .51-.77 4.08 3.03-.51.78-1.33-.77-3.2 4.34 5.29 3.86 3.2-4.34-1.23-1.14.52-.78 4.17 3.05-.51.78-1.33-.76-6.98 9.33ZM131.18 577.08l-1.57-1.34 4.58-12.93-.77-.92.58-.66 3.87 3.07-.62.76-1.3-.86-1.02 2.68 4.26 3.48 2.47-1.58-1.13-1.12.58-.65 3.44 2.75-.58.66-1.07-.6-11.72 7.26Zm1-3-.62 1.57 1.4-1.05 5.22-3.5-3.67-3.01-2.32 6ZM120.08 566.06l1.3 1.57-.57.66-3.67-3.43 3.76-7.96 1.18-2.12-2 1.4-7.6 4.38-3.59-3.3.58-.67 1.7 1.27 6.82-9.48-1.08-1.3.59-.66 3.9 3.7-.59.65-1.36-.98-5.06 6.7-2.2 2.87 2.42-1.4 8.98-5.02.9.85-3.85 8.65-1.6 3.34 2.68-2.44 6.3-5.65-1.26-1.36.58-.65 3.6 3.3-.59.66-1.27-.95-9 7.37Z" fill="#000"/><path d="m103.75 552.1-1.43-1.5 6.13-12.2-.66-1 .68-.63 3.43 3.56-.68.64-1.28-.96-1.4 2.58 3.85 3.89 2.6-1.34-.98-1.29.68-.63 3.12 3.18-.68.63-.94-.66-12.44 5.74Zm1.39-2.88-.82 1.51 1.54-.8 5.66-2.87-3.35-3.45-3.03 5.6ZM97.54 543.72l.8 1.23-.68.63-1.64-1.86c-.33-.3-.64-.68-.97-.97-.49-.44-.96-.97-1.36-1.39-1.17-1.33-1.77-2.5-1.8-3.53-.03-1.03.51-1.9 1.48-2.87.78-.6 1.52-1.12 2.36-1.2a4.54 4.54 0 0 1 2.57.28c.83.33 1.59.94 2.29 1.74l.7.8c.24.26.38.5.47.53l3.08-2.74-1.6-2.06.69-.63 4.07 4.56-.67.63-1.16-1.02-8.63 7.87Zm2.34-7.22a3.81 3.81 0 0 0-2.22-1.2c-.78-.11-1.82.33-2.79 1.29-.8.7-1.2 1.4-1.18 2.13.01.71.4 1.53 1.1 2.33.24.27.57.56.9.85.16.14.33.3.4.41l4.94-4.38c-.23-.26-.6-.77-1.14-1.42ZM97.84 525.87a4.9 4.9 0 0 1-.58 3.31 9.36 9.36 0 0 1-2.43 3.02 6.74 6.74 0 0 1-3.4 1.63c-1.17.2-2.39.18-3.48-.32a6.43 6.43 0 0 1-2.9-2.1c-.6-.77-1.25-1.76-1.85-2.94l-.26-.58 2.69-2.03.77.92-1.51 1.84c.04.21.06.52.24.98.21.36.49.84.86 1.35a3.55 3.55 0 0 0 1.92 1.22c.76.2 1.6.13 2.48-.14a8.22 8.22 0 0 0 2.77-1.6 9.89 9.89 0 0 0 2.17-2.38c.54-.87.86-1.7.87-2.51.02-.81-.28-1.6-.8-2.36-.37-.5-.79-.82-1.12-1.11-.33-.3-.61-.37-.92-.35l-1.9.61-.65-.99 2.29-1.32c.16.14.5.44.92.75.42.32.78.52 1.1.81.33.3.64.68 1.13 1.12a5.1 5.1 0 0 1 1.6 3.17ZM67.37 507.32l.75-.51 1.14 1.42 7.82-5.23-2.74-.03-8.43-.83-.4.3.72 1.52-.75.51-2.81-4.32.75-.51 1.03 1.1 9.68-6.48-.74-1.42.75-.51 2.9 4.34-.74.51-1.08-1.3-7.94 5.3 2.56-.02 8.62.88.6-.35-.8-1.54.74-.51 2.91 4.34-.75.52-1-1.19-9.68 6.47.64 1.4-.75.5-3-4.36ZM60.75 496.68c-.4-.4-.7-.8-1.03-1.09-.33-.29-.45-.63-.68-.9a7.61 7.61 0 0 1-1.2-3.47c-.04-1.03.45-1.71 1.41-2.27a3.3 3.3 0 0 1 2.57-.44c.85.23 1.53.72 2.17 1.4-.56-.96-.8-1.95-.58-2.8.23-.86.72-1.54 1.47-2.05 1.11-.72 2.28-.92 3.3-.54 1.02.37 2.01 1.25 3.01 2.84.35.6.7 1.2.85 1.76.16.55.34 1 .46 1.34.11.34.16.55.13.65l-2.91 1.36-.49-.85 1.77-1.66c0-.72-.3-1.51-.89-2.38-.42-.72-1-1.19-1.6-1.24a4.1 4.1 0 0 0-2.3.6c-.63.44-1.07.94-1.34 1.58-.18.66 0 1.53.58 2.4l.72 1.1-.87.59-.55-.97c-.28-.48-.61-.77-1.04-1.09-.42-.32-.9-.44-1.4-.48-.5-.03-1.05.13-1.65.48a2.4 2.4 0 0 0-1.22 1.5c-.06.6.08 1.25.5 1.97.27.48.57.87.93 1.07.33.29.61.36.83.32l1.68-.57.65 1-2.36 1.6c-.2-.05-.43-.32-.92-.76ZM53.4 482.29l.52 1.46-.81.4-1.23-2.27c-.2-.36-.49-.84-.86-1.35-.37-.5-.58-.87-.72-1.11a7.45 7.45 0 0 1-1.06-3.65c.13-.88.62-1.56 1.58-2.12.82-.39 1.59-.6 2.35-.39.79.11 1.47.6 2 1.25-.52-1.06-.77-2.04-.54-2.9.23-.85.72-1.53 1.66-2a3.51 3.51 0 0 1 3.32-.23c1.11.4 2.14 1.5 3.16 3.4.21.36.4.82.6 1.18.4.82.65 1.4.81 1.54l1.16 2.14-.82.4-.88-1.26-10.24 5.5Zm3-5.1-.46-.94c-.42-.73-.89-1.26-1.55-1.44-.67-.18-1.32-.05-2.13.35-.73.41-1.26.88-1.41 1.45-.16.57.05 1.34.5 2.28l.7 1.2.21.37 4.62-2.43-.48-.85Zm5.65-4c-.63-1.08-1.26-1.76-2-2.06-.73-.3-1.47-.19-2.31.3-.85.49-1.38.96-1.46 1.65-.09.69.02 1.43.58 2.4.62 1.08.94 1.77 1.15 2.14l4.9-2.67c-.15-.24-.4-.81-.86-1.75ZM44.9 468.4l-.92-1.88 9.6-9.65-.3-1.1.81-.4 2.17 4.46-.82.4-.86-1.36-2.16 1.97 2.36 4.9 2.87-.44-.5-1.56.82-.4 1.89 3.97-.82.4-.65-1-13.5 1.69Zm2.16-2.38-1.33 1.18 1.72-.36 6.25-.87-2.1-4.33-4.54 4.38ZM52.28 452.65a6.18 6.18 0 0 1-1.41 2.99 9.6 9.6 0 0 1-3.14 2.21 7.27 7.27 0 0 1-3.74.63 6.78 6.78 0 0 1-3.25-1.18 6.7 6.7 0 0 1-2.2-2.83c-.36-.91-.68-2.01-.94-3.3l-.13-.65 3.17-1.19.5 1.15-2 1.4c-.05.2-.06.6.03 1.03.09.43.25.98.5 1.56.32.7.76 1.32 1.47 1.72.71.4 1.47.6 2.4.54.94-.06 2.01-.28 3.17-.78 1.03-.44 2-1 2.8-1.7.8-.7 1.28-1.38 1.51-2.24.33-.83.24-1.67-.15-2.48a5.55 5.55 0 0 0-.76-1.33c-.24-.27-.47-.53-.85-.63l-2.03-.04-.31-1.1 2.6-.63c.15.25.35.6.66 1 .3.38.63.67.84 1.03.2.37.49.85.74 1.42.5 1.16.7 2.33.52 3.4ZM36.09 440.47a6.25 6.25 0 0 1-2.82-1.26 5.4 5.4 0 0 1-1.68-2.49 5.24 5.24 0 0 1-.26-3.23 5.13 5.13 0 0 1 1.53-2.64A8.63 8.63 0 0 1 35.9 429c1.46-.52 2.73-.7 3.95-.67 1.19.11 2.3.52 3.15 1.15a6.2 6.2 0 0 1 1.96 2.56c.41 1.13.51 2.28.33 3.35a4.91 4.91 0 0 1-1.55 2.74 8.9 8.9 0 0 1-3.07 1.93l1.08 2.83 5.09-1.9-.38-1.62.89-.27 1.75 4.85-.88.27-.74-1.42-10.86 4.02.31 1.5-.89.28-1.78-4.76.89-.27.74 1.42 4.75-1.78-1.07-2.83c-1.2.29-2.44.36-3.48.08Zm-1.14-1.83c1.23.33 2.81.14 4.76-.66 1.7-.67 2.93-1.46 3.71-2.47a3.2 3.2 0 0 0 .56-3.21 3.25 3.25 0 0 0-2.4-2.07c-1.14-.3-2.74-.02-4.67.68a8.84 8.84 0 0 0-3.69 2.38 3.01 3.01 0 0 0-.53 3.11 2.96 2.96 0 0 0 2.26 2.24ZM34.3 419.42c.48-.69 1.11-1.54 2-2.53.57-.65 1.01-1.15 1.33-1.57.3-.33.37-.62.42-.8l-.01-.72.88-.27.73 2.23c.14.24-.08.69-.4 1.11-.34.52-.93 1.18-1.75 1.98-.88.99-1.58 1.71-2.04 2.3-.47.6-.6 1.07-.48 1.4l.31 1.1 5.11-1.58-.25-1.7.88-.27 1.54 4.9-.88.27-.65-1.4-11.1 3.44.2 1.49-.88.27-1.47-4.78.89-.27.64 1.4 5.11-1.59-.5-1.56-6.29-1.99.29 1.6-.9.28-1.35-4.44.89-.27.67 1.3 6.43 2.23c-.12-.34.16-.98.62-1.56ZM37.28 410.54a5.54 5.54 0 0 1-1.9 2.54c-.9.68-2.08 1.28-3.4 1.64-1.41.34-2.65.41-3.82.2a6.05 6.05 0 0 1-2.96-1.5 5.47 5.47 0 0 1-1.67-2.9c-.51-1.87-.3-3.44.68-4.8.95-1.28 2.43-2.2 4.51-2.77a9.68 9.68 0 0 1 3.92-.17 6.4 6.4 0 0 1 3.05 1.53c.82.73 1.38 1.7 1.67 2.89.3 1.2.3 2.32-.08 3.34Zm-10.66 2.13c1.21.43 2.77.34 4.73-.15a7.88 7.88 0 0 0 4.02-2.08 3.2 3.2 0 0 0 .84-3.14c-.29-1.2-1.11-1.93-2.32-2.35-1.2-.43-2.86-.36-4.82.13a7.88 7.88 0 0 0-4.02 2.08 3.2 3.2 0 0 0-.84 3.14 4.16 4.16 0 0 0 2.41 2.38ZM22.43 400.96l.1 1.55-.87.18-.55-2.5c-.1-.43-.25-.98-.4-1.53-.16-.55-.35-1-.37-1.32-.35-1.72-.33-2.94 0-3.77.32-.83 1.07-1.34 2.05-1.59a4.03 4.03 0 0 1 2.38.23c.71.4 1.28.96 1.67 1.78-.3-1.2-.25-2.1.17-2.91a2.8 2.8 0 0 1 2.12-1.47 3.66 3.66 0 0 1 3.28.68c.95.65 1.69 2.07 2.08 4.01.1.44.18.87.17 1.27.15.96.31 1.51.36 1.73l.58 2.4-.87.17-.52-1.47-11.38 2.56Zm4.25-4.06-.25-.98c-.18-.86-.52-1.47-1.14-1.84-.52-.34-1.3-.45-2.2-.18-.85.18-1.46.53-1.7 1.07a3.9 3.9 0 0 0-.14 2.41c.09.43.18.87.36 1.32l.11.34 5.08-1.09c.05-.19-.06-.52-.12-1.05Zm6.43-2.35c-.29-1.2-.68-2.01-1.37-2.5-.58-.47-1.37-.58-2.35-.33-.96.15-1.59.6-1.84 1.14-.34.52-.38 1.42-.16 2.5.3 1.2.47 2.06.58 2.4l5.42-1.2c.07-.29-.06-.93-.28-2ZM15.97 372.24l.96-.16.5 1.56 11.48-1.8-.04-1.75.96-.15.84 5.21-.96.16-.4-1.54-11.49 1.81.95 5.96 11.58-1.78-.04-1.75.96-.15.75 5.2-.96.14-.43-1.44-11.49 1.82-.02 1.62-.96.15-2.2-13.12ZM28.6 366.15a5.6 5.6 0 0 1-2.23 2.25c-.97.56-2.19.94-3.65 1.06a9.17 9.17 0 0 1-3.86-.42 5.87 5.87 0 0 1-3.95-5.03c-.2-1.9.23-3.5 1.35-4.63 1.11-1.13 2.72-1.82 4.92-2.05a9.14 9.14 0 0 1 3.86.43 6.5 6.5 0 0 1 2.83 1.98 5.9 5.9 0 0 1 1.22 3.07 5.9 5.9 0 0 1-.49 3.34Zm-10.84.55c1.16.62 2.66.72 4.74.56 1.89-.2 3.23-.66 4.27-1.5a3.02 3.02 0 0 0 1.32-3.01c-.1-1.15-.78-2.04-1.94-2.66-1.16-.61-2.76-.74-4.74-.56-1.89.21-3.33.64-4.27 1.5-1.02.75-1.4 1.77-1.22 3.04a2.97 2.97 0 0 0 1.84 2.63ZM22.7 351.32c1.68.15 3.04.41 3.94.86.45.22.78.51 1.01.78.21.36.33.7.41 1.13.04.62.03 1.02-.04 1.3l-1.49.22c-.01-.3 0-.72-.02-1.43-.04-.22-.09-.43-.25-.58-.17-.14-.33-.29-.6-.46-1.5-.81-4.58-1.13-9.14-.82l-1.46.12-.06 2.12-.93.05-.68-10.77.93-.06.36 1.73 11.6-.76.09-1.81.93-.06.4 5.71-.93.06-.3-1.92-11.59.67.2 3.82 1.65-.07c2.34.02 4.27.03 5.96.17ZM14.52 340.37l-.21 1.57-.94.06-.2-9.52 2.95-.34.03 1.03-1.78.54-.03 4.68 5.23-.13-.09-3.08-1.57-.21-.03-1.03 4.3-.07.03 1.02-1.6.29-.04 3.15 5.54-.15-.32-5.28-2.39-.94.3-1.14 3.24.45.19 10.34-.93.06-.2-1.58-11.48.28ZM14.3 324.83l.07 3.18 3.88.73-.02 1.22-4.98-.42.27-11.64 5.01-.08-.02 1.21-3.92.58-.15 3.22 11.76.2.21-2.7.9.05-.16 7.08-.9-.04-.15-2.48-11.8-.1ZM21.73 310.43l-.03.9c.2.36.53.65 1.15 1.02.52.34 1.23.74 2.13 1.18.9.45 1.5.82 1.96 1.04.45.22.68.49.63.68l-.16 2.5-.9-.04-.11-.74c-.05-.22-.21-.36-.45-.63-.35-.2-.77-.51-1.46-1-.8-.42-1.4-.88-1.91-1.23a3.17 3.17 0 0 1-1.03-1.09 3.93 3.93 0 0 1-1.54 1.93c-.72.42-1.49.62-2.49.56-1.5-.1-2.5-.57-3.05-1.53-.56-.97-.73-2.23-.6-3.83 0-.4.1-.79.16-1.38.06-.6.18-1.07.17-1.38l.2-2.7.91.04.1 1.56 11.6.76.28-1.76.9.04-.35 5.5-.9-.03-.03-1.84-5-.32-.18 1.79Zm-6.77-1.72a5.95 5.95 0 0 0-.2 1.48c-.06 1 .05 1.74.52 2.27.47.54 1.1.81 2.2.9 1 .06 1.77-.14 2.4-.58.63-.44.83-1.2 1-2.18.06-1 .11-1.6.03-2.03l-5.7-.4-.25.54ZM15.9 297.96l-.24 3.2 3.8 1.02-.11 1.19-4.98-.82 1.27-11.58 5 .32-.1 1.2-3.92.16-.46 3.24 11.67 1.3.5-2.62.88.13-.8 7.13-.87-.14.04-2.43-11.67-1.3ZM30.03 284.03a6.04 6.04 0 0 1-2.82 1.79c-1.1.31-2.44.36-3.8.1a7.69 7.69 0 0 1-3.48-1.44 6.61 6.61 0 0 1-2.1-2.8 6.53 6.53 0 0 1-.28-3.54c.16-.98.47-2.12.99-3.3l.25-.55 3.28.68-.24 1.26-2.46.05a4.2 4.2 0 0 0-.95 2.4c-.1.78 0 1.52.33 2.22.32.7.88 1.26 1.76 1.8.77.51 1.82.79 3.08 1.03 1.17.2 2.2.18 3.25.05a5.34 5.34 0 0 0 2.52-1.05 3.43 3.43 0 0 0 1.2-2.23c.09-.69.12-1.19.1-1.5a2.32 2.32 0 0 0-.34-1l-1.65-1.06.3-1.14 2.52.88c-.08.28.04.62.1 1.14.09.43.06.94.14 1.37.1.43-.04.9-.12 1.6a8.44 8.44 0 0 1-1.58 3.24ZM19.8 266.72l.88.13-.18 1.79 9.16 1.94-1.93-1.94-5.35-6.63-.47-.13-.53 1.6-.88-.14 1.04-5.02.88.14-.1 1.5 11.37 2.43.5-1.5.85.24-1.06 5.11-.85-.23.14-1.69-9.34-2 1.85 1.83 5.43 6.75.66.17.55-1.68.88.13-1.06 5.12-.88-.14.12-1.6-11.37-2.43-.47 1.4-.88-.13 1.04-5.02ZM24.38 246.96l4.8 1.09-.33 1.23-3.77-.4-1.16 3.97 11.45 2.87 1.04-3.09.85.23-1.79 7.06-.85-.23.34-2.05-11.26-2.81-.7 1.85-.86-.23 2.24-9.49ZM26.36 244.13l-.67 1.35-.86-.23 1.52-4.89.85.23-.21 1.57 4.8 1.5 1.89-6.32-4.8-1.5-.66 1.35-.86-.22 1.49-4.8.85.23-.19 1.48 11.12 3.38.57-1.37.85.23-1.49 4.8-.85-.24.31-1.54-5.18-1.6-1.9 6.32 5.18 1.6.6-1.48.86.23-1.52 4.9-.85-.24.28-1.45-11.13-3.29ZM30.9 225.69l.72-1.95h13.65l.59-1.07.83.33-1.65 4.65-.83-.33.3-1.54-2.93-.08-1.78 5.13 2.29 1.73.7-1.44.82.32-1.43 4.2-.83-.32.21-1.17-10.67-8.46Zm3.26-.04-1.69-.15 1.46 1 5 3.79 1.6-4.46-6.37-.18ZM43.79 216.72c1.49.9 2.6 1.71 3.2 2.49a4 4 0 0 1 .6 1.17c.09.44-.01.82-.11 1.2-.25.54-.45.9-.62 1.16l-1.4-.48c.17-.26.3-.74.55-1.28.05-.2.12-.48.05-.6-.04-.21-.18-.45-.32-.7-1.05-1.4-3.67-3.02-7.91-4.66l-1.38-.57-1 1.87-.84-.33 4.01-10.03.83.33-.46 1.7 10.77 4.32.83-1.61.83.32-2.14 5.34-.83-.33.51-1.9-10.76-4.3-1.44 3.48 1.56.62c2.15 1.08 3.98 1.88 5.47 2.79ZM46.8 200.92c.66-1.35 1.42-2.27 2.45-2.7 1.04-.44 2.04-.37 3.22.15 1.26.64 2.15 1.49 2.44 2.69.31 1.1.17 2.39-.5 3.74-.04.19-.19.35-.24.54-.15.17-.2.36-.37.62-.37.61-.62 1.16-.86 1.7l-1.02 2.27-.8-.42.5-1.5-10.59-4.97-.85 1.3-.8-.42 2.2-4.8.8.41-.58 1.78 3.89 1.86 1.1-2.25Zm0-12.93.8.42-.55 1.68 10.49 4.95.9-1.49.81.42-2.35 4.97-.8-.42.55-1.68-10.49-4.95-.9 1.49-.81-.42 2.35-4.97Zm6.17 17.64c.15-.16.25-.54.45-.9.44-.9.48-1.8.18-2.6-.3-.79-.95-1.37-1.95-1.84a3.3 3.3 0 0 0-2.48-.26c-.7.32-1.25.89-1.7 1.79l-.76 1.72 5.7 2.66c.24-.14.41-.4.56-.57ZM51.86 180.89l-.93 1.18-.8-.42 2.5-4.42.81.42-.6 1.47 4.45 2.4 3.18-5.76-4.45-2.41-.93 1.17-.8-.42 2.39-4.35.8.42-.48 1.4 10.2 5.69.92-1.18.8.42-2.4 4.44-.81-.41.6-1.47-4.8-2.62-3.18 5.77 4.8 2.61.98-1.36.8.42-2.53 4.51-.8-.42.57-1.37-10.29-5.71ZM60.28 163.9l1.08-1.75 13.37 2.97.75-.92.78.51-2.65 4.18-.78-.51.7-1.45-2.86-.76-2.87 4.63 1.85 2.22 1.05-1.24.78.51-2.33 3.76-.78-.52.5-1.09-8.59-10.55Zm3.1.62-1.62-.43 1.2 1.23 4.12 4.77 2.5-4.01-6.2-1.56ZM69.85 151.38l-1.34 1.58-.78-.52 2.9-4 8.34 2.74 2.3.92-1.64-1.86-5.35-7.04 2.91-4 .78.5-.99 1.78L87.32 147l1.14-1.22.78.51-3.22 4.43-.78-.51.81-1.51-7.33-4.2-3.19-1.78 1.75 2.2 6.14 8.27-.68 1.03-9.05-2.72-3.56-1.16 2.73 2.36 6.37 5.48 1.2-1.42.78.52-2.8 3.94-.77-.52.79-1.42-8.58-7.9Z" fill="#000"/><path d="m81.56 133.54 1.24-1.6 12.96 4.49.82-.8.75.6-3.07 3.87-.75-.61.86-1.3-2.68-1.02-3.4 4.29 1.61 2.36 1.12-1.13.75.61-2.75 3.44-.75-.6.59-1.07-7.3-11.53Zm3.01.9-1.56-.62 1.05 1.4 3.5 5.22 2.92-3.7-5.9-2.3ZM89.1 126.29l-1.16.91-.75-.6 1.63-1.91c.29-.33.58-.66.78-1.02.44-.5.78-1.01 1.22-1.5 1.17-1.32 2.3-2.14 3.26-2.29.95-.15 1.97.23 2.96 1.1a4.55 4.55 0 0 1 1.57 4.8 5.7 5.7 0 0 1-1.38 2.48c-.27.24-.46.6-.73.83-.27.23-.41.4-.44.5l3.16 2.67 1.8-1.76.65.58-4 4.64-.65-.59.86-1.3-8.78-7.54Zm7.47 1.4c.61-.76.94-1.6.85-2.43-.08-.84-.56-1.68-1.62-2.68-.82-.73-1.56-1.02-2.3-.92-.74.1-1.37.55-2.22 1.45-.3.32-.49.68-.78 1-.17.27-.3.34-.32.43l5.06 4.31c.34-.11.75-.51 1.33-1.17ZM106.94 124.35c-1.1.31-2.2.22-3.34-.08-1.12-.4-2.18-1-3.24-2a8 8 0 0 1-2.1-3.2 6.74 6.74 0 0 1-.17-3.51c.3-1.14.8-2.23 1.74-3.1.7-.73 1.5-1.43 2.74-2.22l.5-.37 2.3 2.45-.85.89-2.1-1.28c-.21.05-.55.16-.91.37-.36.2-.78.6-1.19 1-.56.57-.86 1.3-.94 2-.1.78.1 1.55.46 2.46.4.82 1.07 1.71 1.96 2.56.8.83 1.77 1.4 2.67 1.84.9.44 1.78.58 2.62.5.83-.09 1.55-.5 2.23-1.14.44-.5.76-.91.93-1.17.17-.26.27-.64.26-.95l-.83-1.86.92-.77 1.66 2.18c-.15.16-.35.52-.6 1.06-.22.45-.41.8-.61 1.16-.2.36-.52.78-.95 1.27a9.5 9.5 0 0 1-3.16 1.9ZM118 94.82l.64.68-1.2 1.41 6.28 6.98-.38-2.75-.38-8.46-.3-.38-1.38.95-.63-.68 3.87-3.44.64.68-.93 1.18 7.75 8.7 1.26-.89.63.68-3.88 3.44-.63-.68 1.14-1.22-6.34-7.1.43 2.56.33 8.65.47.53 1.4-1.05.63.68-3.9 3.54-.63-.68 1.02-1.15-7.75-8.7-1.23.79-.64-.68 3.72-3.59ZM127.69 86.82c.31-.42.63-.85.92-1.18.3-.33.56-.56.83-.8a6.92 6.92 0 0 1 3.3-1.66c.95-.15 1.76.27 2.46 1.07.6.77.9 1.57.77 2.45a4.68 4.68 0 0 1-1.04 2.37c.9-.68 1.8-1.05 2.69-.91.9.04 1.61.43 2.22 1.2a3.96 3.96 0 0 1 .97 3.22c-.18 1.07-.99 2.18-2.42 3.32-.53.47-1.13.82-1.61 1.1-.49.28-.94.46-1.28.57-.33.12-.55.16-.57.26l-1.82-2.73.77-.6 1.93 1.53a5.16 5.16 0 0 0 2.27-1.23c.65-.54 1.02-1.15.98-1.77a3.22 3.22 0 0 0-.94-2.2c-.44-.62-1.06-.99-1.75-1.07-.69-.08-1.48.21-2.38.89l-1.03.84-.7-.8.8-.7c.38-.3.7-.73.92-1.18.22-.45.35-.92.29-1.45-.07-.52-.34-1-.72-1.51-.54-.66-1.06-1-1.68-.96-.62.03-1.2.29-1.82.73-.42.4-.7.73-1 1.06a.92.92 0 0 0-.23.85l.81 1.54-.92.78-1.97-2.16c.24-.14.54-.47.95-.87ZM140.88 77.52l-1.43.74-.5-.75 2.02-1.5c.36-.2.78-.6 1.28-.97.41-.4.8-.7 1.04-.84 1.4-1.05 2.56-1.56 3.47-1.52.9.04 1.7.46 2.31 1.23.52.75.72 1.52.7 2.33 0 .81-.4 1.52-.99 2.18a4 4 0 0 1 2.81-.98c.9.04 1.69.55 2.2 1.3.75 1.02.97 2.1.76 3.26-.22 1.16-1.24 2.32-2.9 3.6-.4.3-.75.51-1.12.72-.84.49-1.25.89-1.47.93l-2.03 1.5-.5-.75 1.08-1.03-6.74-9.45Zm5.4 2.26.87-.58c.75-.51 1.11-1.13 1.17-1.72.06-.6-.14-1.36-.66-2.11-.5-.75-1.03-1.1-1.62-1.15-.6-.06-1.4.24-2.16.85-.4.3-.75.5-1.04.84l-.27.23 3.06 4.18c-.1-.02.26-.23.65-.54Zm4.78 4.95c1.02-.74 1.63-1.5 1.74-2.28a3.2 3.2 0 0 0-.61-2.3c-.6-.78-1.2-1.24-1.8-1.3-.68-.08-1.38.24-2.27.92-1.02.74-1.65 1.19-1.91 1.42l3.26 4.54c.22-.04.72-.42 1.6-1ZM153.44 67.14l1.73-1.17 10.94 8.23 1.06-.53.51.75-4.1 2.77-.52-.75 1.19-1-2.26-1.84-4.59 3.05.8 2.76 1.41-.74.52.75-3.72 2.47-.51-.75.82-.8-3.28-13.2Zm2.66 1.83-1.34-1.07.57 1.68 1.73 6.07 3.96-2.61-4.92-4.07ZM170 72.19a6.46 6.46 0 0 1-3.2-.96 9.96 9.96 0 0 1-2.6-2.84 8.71 8.71 0 0 1-1.18-3.58c-.1-1.14.23-2.38.8-3.35a7.23 7.23 0 0 1 2.52-2.58c.85-.49 1.88-.92 3.22-1.38l.58-.25 1.55 2.96-1.09.63-1.66-1.77c-.19-.05-.53.06-.96.15-.43.09-.9.36-1.4.64-.71.42-1.18 1-1.45 1.65-.3.73-.4 1.52-.26 2.48.15.95.59 1.99 1.24 2.98s1.33 1.88 2.08 2.49a6.5 6.5 0 0 0 2.42 1.26c.85.23 1.62.03 2.46-.46.6-.35 1-.65 1.16-.91.27-.24.47-.6.54-.88l-.27-2 1.06-.54.96 2.5c-.25.14-.51.37-.83.8-.3.33-.58.66-.97.96-.3.33-.77.6-1.26.89a5.84 5.84 0 0 1-3.45 1.1ZM179.76 54.43a5.86 5.86 0 0 1 3.1-5.08 5.54 5.54 0 0 1 3.15-.78c1 .06 2.03.44 2.85 1.17.82.73 1.6 1.65 2.31 2.76a8.78 8.78 0 0 1 1.2 3.88 5.6 5.6 0 0 1-.67 3.29 5.96 5.96 0 0 1-5.5 3c-1-.06-2.01-.43-2.86-1.07a8.1 8.1 0 0 1-2.32-2.76l-2.63 1.44 2.6 4.77 1.49-.62.39.81-4.53 2.46-.39-.82 1.26-.89-5.51-10.23-1.47.52-.48-.84 4.4-2.38.5.84-1.27.88 2.39 4.41 2.72-1.4a6.97 6.97 0 0 1-.73-3.36Zm1.76-1.26c-.14 1.29.26 2.82 1.3 4.63.91 1.56 1.82 2.72 2.98 3.34 1.16.62 2.16.68 3.34.08a2.94 2.94 0 0 0 1.65-2.72 9.63 9.63 0 0 0-1.33-4.53c-.9-1.57-1.82-2.73-2.88-3.32a3.3 3.3 0 0 0-3.22-.15 3.17 3.17 0 0 0-1.84 2.67ZM200.48 49.7c.71.39 1.59.93 2.74 1.54.78.52 1.3.86 1.75 1.08.45.23.64.28.86.23l.74-.1.4.81-2.1.97c-.24.14-.62.04-1.17-.21-.54-.25-1.23-.74-2.17-1.4a25.14 25.14 0 0 0-2.5-1.69c-.62-.36-1.12-.4-1.45-.28l-1.06.53 2.28 4.79 1.56-.5.4.82-4.67 2.2-.4-.81 1.33-.77-4.93-10.48-1.44.43-.4-.82 4.55-2.15.4.82-1.35.86 2.25 4.89 1.42-.74 1.14-6.52-1.56.5-.4-.82 4.2-1.94.38.82-1.23.8-1.37 6.65c.4 0 1.07.19 1.8.48ZM209.69 51.45a4.9 4.9 0 0 1-2.74-1.55 9.73 9.73 0 0 1-2.1-3.21 7.98 7.98 0 0 1-.72-3.76 6.4 6.4 0 0 1 1.05-3.18 5.9 5.9 0 0 1 2.6-2.06c1.82-.73 3.34-.73 4.79-.04 1.44.7 2.59 2.12 3.4 4.07a8.3 8.3 0 0 1 .69 3.85 6.78 6.78 0 0 1-1.08 3.28 5.9 5.9 0 0 1-2.59 2.06c-1.18.6-2.23.72-3.3.54Zm-3.6-10.13c-.24 1.26.07 2.77.78 4.69.76 1.73 1.64 2.98 2.68 3.67 1.01.78 2.11.87 3.26.36 1.13-.4 1.8-1.35 2.03-2.61.23-1.26-.05-2.87-.88-4.72-.75-1.73-1.64-2.98-2.68-3.67-1.04-.69-2.1-.87-3.26-.36a3.46 3.46 0 0 0-1.93 2.64ZM217.05 35.4l-1.51.3-.27-.89 2.37-.89c.44-.09.92-.37 1.5-.62.57-.25.93-.46 1.24-.48 1.59-.6 2.86-.76 3.71-.53.86.23 1.51.81 1.86 1.82.3.8.37 1.63.08 2.36-.3.74-.8 1.42-1.52 1.84a4.72 4.72 0 0 1 2.92-.24c.86.23 1.49.9 1.83 1.92a3.92 3.92 0 0 1-.17 3.31c-.6 1.07-1.85 1.95-3.77 2.66-.46.18-.8.3-1.23.38-.88.28-1.46.53-1.68.57l-2.38.9-.3-.8 1.43-.74-4.11-10.88Zm4.61 3.67 1.01-.34c.8-.3 1.33-.76 1.6-1.4.27-.64.26-1.36-.13-2.18-.3-.8-.77-1.32-1.31-1.57-.55-.25-1.38-.17-2.4.17-.45.19-.8.4-1.27.58l-.36.2 1.85 4.88c.12-.07.46-.18 1.01-.34Zm3.17 6.05a4.13 4.13 0 0 0 2.3-1.73c.39-.71.38-1.43.04-2.44-.37-.9-.84-1.44-1.38-1.69-.64-.27-1.48-.2-2.51.24-1.23.39-1.92.71-2.26.83l1.97 5.2c.25.18.93-.05 1.84-.41ZM244.57 25.04l.27.89-1.42.74 3.35 11.08 1.72-.35.27.89-4.99 1.51-.27-.89 1.4-.64-3.42-11.2-5.75 1.71 3.41 11.2 1.72-.35.28.9-5 1.5-.26-.88 1.39-.65-3.35-11.08-1.6.29-.27-.9 12.52-3.77ZM252.37 36.6a5.54 5.54 0 0 1-2.55-1.9 9.17 9.17 0 0 1-1.51-3.46 9.2 9.2 0 0 1-.18-3.92 6.06 6.06 0 0 1 1.51-2.96 5.47 5.47 0 0 1 2.9-1.67c1.86-.51 3.44-.3 4.8.68 1.28.95 2.2 2.43 2.74 4.6a9.7 9.7 0 0 1 .17 3.92 5.47 5.47 0 0 1-1.62 3.03 6.78 6.78 0 0 1-2.9 1.67 5.27 5.27 0 0 1-3.36.02Zm-2.13-10.65c-.43 1.2-.34 2.76.15 4.73a7.88 7.88 0 0 0 2.08 4.02 3.2 3.2 0 0 0 3.14.84c1.2-.3 1.9-1.02 2.35-2.32.43-1.21.36-2.86-.13-4.83a7.88 7.88 0 0 0-2.08-4.02 3.2 3.2 0 0 0-3.14-.84 4.15 4.15 0 0 0-2.38 2.42ZM266.3 28.73c.13 1.76 0 3.05-.38 4.07a2.32 2.32 0 0 1-1.77 1.66c-.55.16-1.05.13-1.27.17l-.43-1.43c.31-.02.74-.11 1.39-.24.22-.05.43-.1.58-.26.14-.16.29-.33.37-.61.64-1.66.43-4.67-.5-9.2l-.33-1.41-2.2.22-.18-.86 10.57-2.16.17.86-1.68.57 2.34 11.42 1.89-.2.18.86-5.6 1.15-.19-.87 1.9-.6-2.34-11.43-3.66.75.38 1.63c.32 2.22.6 4.23.76 5.9ZM275.91 19.08h-1.53l-.15-.96 9.38-1.56.77 2.85-1.06.13-.85-1.76-4.54.62.84 5.21 3.11-.59V21.5l1.06-.12.69 4.26-1.05.12-.5-1.56-3.09.5.86 5.53 5.17-1.06.57-2.5 1.17.21.04 3.27-10.22 1.65-.18-.87 1.54-.4-2.03-11.44ZM291.32 16.69l-3.18.47-.14 3.94-1.27.17-.3-4.97 11.58-1.38.82 4.9-1.14.1-1.1-3.86-3.23.26 1.44 11.7 2.68-.1.06.93-7.06.86-.06-.94 2.38-.48-1.48-11.6ZM306.6 22l-.93.06a3.7 3.7 0 0 0-.83 1.2c-.28.64-.58 1.38-.83 2.33-.35.92-.53 1.59-.75 2.04-.22.45-.4.7-.61.75l-2.51.25-.06-.94.68-.22c.21-.05.36-.21.56-.57.2-.35.44-.9.74-1.63.32-.83.72-1.54.96-2.08a3.6 3.6 0 0 1 1.03-1.16 3.3 3.3 0 0 1-2.13-1.18 4.01 4.01 0 0 1-.9-2.38c-.11-1.45.29-2.57 1.06-3.18a6.52 6.52 0 0 1 3.77-1.13c.3-.01.83-.08 1.43-.02.62-.04 1.03-.03 1.34-.05l2.7-.2.05.94-1.5.3.9 11.46 1.72.05.05.93-5.52.46-.05-.94 1.82-.32-.4-5-1.79.24Zm.76-7.02c-.6-.06-1.02.03-1.53 0a3.5 3.5 0 0 0-2.13.75c-.53.47-.74 1.23-.61 2.28a3.5 3.5 0 0 0 .91 2.28c.6.46 1.35.67 2.28.61 1.03-.03 1.68-.16 1.99-.18l-.4-5.71-.5-.03ZM318.09 14.49l-3.23.26-.54 3.92-1.25.08.14-5.06 11.63-.45.4 5h-1.13l-.8-3.88-3.26.04.4 11.82 2.62.1.05.93-7.09.24-.06-.94 2.42-.27-.3-11.79ZM333.92 26.47a6.56 6.56 0 0 1-2.18-2.51 8.68 8.68 0 0 1 .27-7.47 5.7 5.7 0 0 1 2.48-2.4 6.96 6.96 0 0 1 3.47-.8c.9.05 2.1.16 3.43.52l.57.15-.3 3.38-1.21-.02-.4-2.34a2.11 2.11 0 0 0-.9-.45c-.47-.12-.97-.16-1.56-.21a3.41 3.41 0 0 0-2.11.65 5.28 5.28 0 0 0-1.54 1.93 10.26 10.26 0 0 0-.27 6.34c.27.9.75 1.74 1.41 2.32.66.59 1.4.89 2.3.92.72 0 1.12 0 1.56-.09.33-.11.67-.23.93-.46l.8-1.82 1.16.2-.5 2.62c-.3.02-.64.14-1.17.2-.43.09-.88.27-1.29.26-.43.1-.93.06-1.55.1a6.15 6.15 0 0 1-3.4-1.02ZM349.53 13.85l-.04.9-1.87.12-.68 9.39 1.71-2.2 5.83-6.17.03-.5-1.64-.34.04-.9 5.1.34-.04.9-1.45.13-.77 11.6 1.54.32-.04.9-5.2-.37.05-.9 1.65-.07.6-9.51-1.55 2.02-5.95 6.25-.09.7 1.76.26-.03.9-5.3-.4.04-.9 1.56-.1.76-11.6-1.45-.29.04-.9 5.39.42ZM369.8 15.72l-.39 4.88-1.28-.14-.1-3.8-4.13-.59-1.31 11.77 3.2.55-.13.89-7.3-.84.13-.88 2.02.03 1.25-11.48-1.9-.51.13-.88 9.82 1ZM372.95 17.27l-1.4-.47.14-.88 5 .73-.14.88-1.62-.03-.73 5 6.45 1.01.73-5-1.5-.5.14-.88 5 .73-.13.88h-1.53l-1.75 11.45 1.43.38-.13.88-5-.73.13-.88h1.53l.83-5.38-6.45-1.01-.83 5.38 1.61.43-.13.88-5.1-.75.14-.88h1.53l1.78-11.24ZM391.77 19.26l2.03.44 1.87 13.54 1.11.4-.13.88-4.83-.99.13-.88 1.6.13-.33-2.95-5.3-1.11-1.4 2.58 1.49.5-.14.88-4.35-.86.13-.88 1.22.02 6.9-11.7Zm.6 3.11-.17-1.67-.71 1.54-3 5.51 4.63.94-.75-6.32ZM402.46 30.68a11.18 11.18 0 0 1-2.06 3.52c-.41.4-.77.61-1.1.72-.35.12-.75.11-1.23-.02-.57-.15-1.04-.28-1.3-.45l.2-1.47 1.32.35c.2.05.4 0 .62-.03.22-.05.36-.21.63-.45 1.24-1.2 2.5-4.01 3.6-8.5l.39-1.43-2-.54.26-.95 10.5 2.62-.25.95-1.8-.18-2.8 11.27 1.75.67-.23.86-5.63-1.41.23-.86 1.95.32 2.81-11.26-3.73-.9-.43 1.62c-.44 2.02-1.07 3.99-1.7 5.55ZM418.54 31.53a5.75 5.75 0 0 1 3.02 2.03c.58.87.68 2.01.25 3.22-.47 1.4-1.23 2.32-2.26 2.76-1.16.5-2.37.48-3.8.1l-.57-.15c-.19-.05-.38-.1-.64-.28-.64-.27-1.3-.45-1.85-.7l-2.44-.75.22-.86 1.55.31 3.38-11.1-1.34-.67.23-.86 5.08 1.57-.23.85-1.86-.3-1.31 4.14 2.57.69Zm-3.84 6.7c.19.06.55.26.93.36 1.04.28 1.85.3 2.57-.13.73-.41 1.22-1.1 1.5-2.14.28-1.05.26-1.76-.15-2.49-.35-.6-1.03-1.09-2.05-1.46l-1.81-.49-1.82 6.03c.38.1.64.28.83.33Zm16.63-8.47-.22.85-1.77-.26-3.38 11.1 1.63.75-.23.86-5.27-1.62.23-.85 1.74.36 3.38-11.11-1.63-.75.23-.85 5.3 1.52ZM439.02 33.76l-1.32-.77.32-.83 4.72 1.78-.32.83-1.55-.32-1.77 4.72 6.19 2.38 1.77-4.72-1.32-.77.32-.83 4.72 1.78-.32.83-1.45-.29-4.15 10.9 1.35.68-.32.83-4.72-1.78.32-.83 1.52.41 1.97-5.07-6.19-2.38-1.97 5.08 1.42.79-.32.83-4.8-1.9.33-.83 1.52.4 4.05-10.92ZM457.01 39.6l1.92.81-1.01 13.69.94.66-.32.83-4.55-2.04.32-.83 1.5.5.38-2.95-5.02-2.16-1.9 2.14 1.42.79-.32.83-4.1-1.81.32-.83 1.14.3 9.28-9.94Zm-.05 3.24.24-1.67-1.07 1.35-4.11 4.7 4.38 1.89.56-6.27ZM470.73 47.34 469 46.17l.42-.8 4.38 2.29-1.5 8.66-.55 2.4 1.6-1.81 6.17-6.3 4.38 2.3-.42.8-1.94-.72-4.05 10.93 1.37.98-.42.8-4.74-2.48.42-.8 1.57.61 3.11-7.82 1.33-3.41-1.97 2.02-7.24 7.23-1.06-.6 1.5-9.37.65-3.6-1.93 3.05-4.56 7.13 1.56 1.03-.42.8-4.29-2.26.42-.8 1.47.59 6.47-9.68Z" fill="#000"/><path d="m490.1 56.4 1.74 1.08-2.58 13.47.94.66-.42.8-4.23-2.46.42-.8 1.47.6.64-2.78-4.65-2.78-2.16 1.97 1.27.95-.42.8-3.78-2.23.42-.8 1.12.4 10.22-8.88Zm-.44 3.15.43-1.62-1.23 1.2-4.7 4.24 4.13 2.43 1.37-6.25ZM498.37 62.8l-1.06-1 .51-.78 2.08 1.37c.35.2.78.52 1.13.71.62.37 1.16.62 1.68.96 1.46 1 2.43 1.98 2.67 2.96.25.98.06 2.05-.62 3.09a4.56 4.56 0 0 1-2.01 1.8c-.82.4-1.66.48-2.54.34a7.26 7.26 0 0 1-2.68-1.02c-.35-.2-.61-.37-.94-.66-.36-.2-.52-.34-.6-.46l-2.25 3.47 2.03 1.56-.51.78-5.13-3.31.52-.78 1.44.7 6.28-9.73Zm-.32 7.65c.87.54 1.63.74 2.5.57.85-.18 1.63-.79 2.36-2.01.54-.88.77-1.73.55-2.4a4.19 4.19 0 0 0-1.71-2c-.36-.19-.71-.39-1.16-.6-.26-.18-.45-.23-.45-.23l-3.63 5.55c.33.29.76.6 1.54 1.12ZM502.77 80.17a5.84 5.84 0 0 1-.35-3.25 9.37 9.37 0 0 1 1.57-3.55 7.99 7.99 0 0 1 2.8-2.51 6.23 6.23 0 0 1 3.43-.61c1.2.12 2.3.52 3.32 1.3.78.51 1.67 1.36 2.54 2.3l.5.44-2.13 2.6-1.04-.7 1-2.17c-.05-.22-.28-.48-.5-.84-.2-.37-.72-.7-1.24-1.05a3.57 3.57 0 0 0-2.16-.68c-.81-.02-1.6.28-2.35.8a9.2 9.2 0 0 0-2.24 2.25c-.66.94-1.13 1.94-1.48 2.86a4.82 4.82 0 0 0-.11 2.72c.27.89.71 1.51 1.5 2.03.51.34.93.66 1.31.76.38.1.67.18.98.16l1.71-1.07.9.85-1.95 1.93c-.26-.18-.64-.28-1.09-.5-.47-.13-.83-.32-1.3-.45-.36-.2-.8-.42-1.32-.76a8.54 8.54 0 0 1-2.3-2.86ZM530.03 84.12l-.6.75-1.56-1.03-5.92 7.27 2.66-.81 8.28-1.65.32-.42-1.1-1.22.6-.75 4.01 3.31-.6.76-1.33-.77-7.41 9.02 1.13 1.12-.59.66-4-3.32.59-.66 1.39.89 6.04-7.35-2.45.77-8.5 1.7-.44.5 1.2 1.23-.58.66-4.1-3.34.58-.66 1.3.86 7.41-9.02-1.03-1.09.6-.75 4.1 3.34ZM539.51 92.46c.55.25.88.54 1.23.74.36.2.68.49.94.66 1.16 1.02 1.9 2.03 2.15 3.02.24.98.01 1.83-.69 2.56s-1.43 1.15-2.33 1.1a3.8 3.8 0 0 1-2.47-.65c.8.82 1.28 1.67 1.36 2.5.08.84-.24 1.67-.82 2.33-.88.98-1.94 1.52-3.03 1.42-1.13.01-2.29-.6-3.7-1.8a7 7 0 0 1-1.33-1.48c-.38-.5-.59-.87-.82-1.13l-.35-.6 2.43-2.2.65.58-1.18 2.12c.23.68.77 1.33 1.5 2.03.66.59 1.2.84 1.94.73a3.28 3.28 0 0 0 1.96-1.21c.55-.56.73-1.23.81-1.92.09-.69-.42-1.44-1.25-2.17l-.99-.87.7-.73.83.73c.43.32.85.63 1.33.76.47.13.97.16 1.52 0a2.8 2.8 0 0 0 1.38-.95c.58-.66.83-1.2.7-1.85-.04-.62-.41-1.13-1.07-1.72-.4-.4-.75-.6-1.2-.83-.36-.2-.67-.18-.88-.13l-1.4 1.05-.92-.76 1.82-2.26c.3.39.66.59 1.18.93ZM550.65 104.1l-.88-1.25.68-.64 1.75 1.8c.33.3.73.7 1.23 1.14l.98.88c1.2 1.23 1.95 2.25 2 3.18.18.86-.14 1.7-.85 2.42-.68.64-1.38.96-2.12 1.06-.74.11-1.6-.12-2.37-.63.89.85 1.38 1.7 1.43 2.62.06.93-.24 1.67-.95 2.4-.84.89-1.97 1.3-3.07 1.21-1.2-.12-2.51-.88-3.97-2.29-.33-.29-.63-.67-.87-.94-.63-.68-1.03-1.1-1.2-1.24l-1.75-1.8.67-.63 1.28.95 8.01-8.24Zm-5.53 11.15c.9.85 1.67 1.36 2.48 1.38.81.01 1.51-.31 2.19-.94.68-.64.98-1.37.94-2-.04-.61-.46-1.34-1.25-2.16-.9-.85-1.46-1.4-1.7-1.68l-3.9 3.95c.04.21.54.65 1.24 1.45Zm4.22-5.49.73.7c.66.59 1.27.96 1.9.92a2.83 2.83 0 0 0 1.9-1.02c.58-.66.92-1.18.88-1.8-.03-.62-.45-1.34-1.18-2.05-.33-.29-.66-.58-1.08-.9l-.33-.29-3.64 3.71c.19.05.42.32.82.73ZM562.95 114.83l1.43 1.5-6.38 12.05.65.99-.68.63-3.3-3.63.68-.64 1.15 1.02 1.5-2.55-3.7-4.05-2.67 1.22.98 1.29-.68.63-3-3.25.68-.63.91.75 12.43-5.33Zm-1.48 2.87.91-1.5-1.54.82-5.7 2.65 3.23 3.51 3.1-5.48ZM560.4 131.97a5.56 5.56 0 0 1 .48-3.33 8.06 8.06 0 0 1 2.44-3.01 7.8 7.8 0 0 1 3.42-1.73 6.42 6.42 0 0 1 6.4 2.33c.61.77 1.26 1.76 1.86 2.94l.25.57-2.68 2.03-.77-.92 1.54-1.93c-.05-.21-.07-.52-.27-.88-.21-.37-.5-.85-.9-1.26a3.54 3.54 0 0 0-1.9-1.23 4.5 4.5 0 0 0-2.49.15c-.89.27-1.85.83-2.77 1.6-.92.77-1.65 1.6-2.16 2.38a4.94 4.94 0 0 0-.79 2.54c-.01.8.29 1.6.9 2.38.46.53.8.82 1.15 1.02.35.2.61.37.92.35l1.9-.62.65 1-2.32 1.41c-.16-.14-.49-.44-.91-.75a4.92 4.92 0 0 1-1.11-.81c-.33-.3-.76-.61-1.13-1.12a5.16 5.16 0 0 1-1.71-3.1ZM579.42 138.9a6.7 6.7 0 0 1 3.05.41 5.75 5.75 0 0 1 2.35 1.86 6 6 0 0 1 1.24 2.98c.03 1.03-.13 2-.7 2.97a8.54 8.54 0 0 1-2.45 2.7 9.59 9.59 0 0 1-3.63 1.78 5.72 5.72 0 0 1-5.96-2.1 6.52 6.52 0 0 1-1.3-3.1c-.13-1.06.13-2 .6-3a9.88 9.88 0 0 1 2.36-2.73l-1.8-2.42-4.35 3.32.83 1.44-.75.52-3.08-4.09.75-.51 1.13 1.11 9.2-7-.76-1.32.78-.61 3 3.96-.76.6-1.13-1.1-3.97 3 1.8 2.42c1.37-.55 2.47-.86 3.55-1.08Zm1.62 1.56c-1.24.07-2.73.7-4.4 1.98-1.43 1.14-2.42 2.2-2.85 3.41a3.3 3.3 0 0 0 .45 3.28 3.03 3.03 0 0 0 2.94 1.2c1.24-.08 2.66-.82 4.3-2.01 1.43-1.15 2.43-2.2 2.85-3.41.43-1.21.3-2.26-.38-3.16a3.24 3.24 0 0 0-2.9-1.29ZM587.37 158.66c-.2.76-.67 1.75-1.2 2.94-.41.8-.6 1.47-.79 1.82-.1.38-.2.76-.13.88l.22.67-.75.52-1.32-1.89c-.14-.24-.14-.64.11-1.19.25-.54.57-1.37 1.04-2.37.62-1.16.97-2.08 1.24-2.72.28-.64.21-1.17.1-1.5l-.65-1-4.37 3.01.71 1.52-.75.51-2.84-4.23.75-.5 1 1.18 9.6-6.5-.65-1.4.75-.5 2.77 4.1-.75.51-1-1.19-4.47 2.98.86 1.35 6.58.14-.74-1.42.75-.51 2.54 3.83-.75.52-1.03-1.1-6.75-.28c.18.46.12 1.06-.08 1.82ZM587 168.03c.06-1 .34-2.05 1.1-2.97a8.71 8.71 0 0 1 2.8-2.5 7.9 7.9 0 0 1 3.6-1.28 6.59 6.59 0 0 1 3.32.58c1 .47 1.81 1.2 2.44 2.29.97 1.69 1.28 3.2.75 4.78-.5 1.5-1.66 2.82-3.5 3.95a8.85 8.85 0 0 1-3.72 1.35 6.88 6.88 0 0 1-3.4-.6 6.2 6.2 0 0 1-2.45-2.3 6.76 6.76 0 0 1-.94-3.3Zm9.53-5.19c-1.21-.02-2.77.48-4.48 1.55-1.6 1-2.69 2.03-3.2 3.22-.62 1.16-.5 2.2.13 3.3a3.34 3.34 0 0 0 2.84 1.57c1.3.04 2.77-.48 4.48-1.55 1.6-1 2.69-2.03 3.2-3.22.5-1.08.5-2.2-.13-3.3a3.28 3.28 0 0 0-2.84-1.57ZM604.03 172.9l-.53-1.47.85-.48 1.25 2.17c.2.36.49.84.86 1.35.37.5.58.87.72 1.1.8 1.55 1.22 2.68 1.06 3.65-.16.98-.62 1.57-1.5 2.15a3.8 3.8 0 0 1-2.36.48c-.79-.1-1.5-.5-2.1-1.27.62 1.08.8 1.94.64 2.92-.14.88-.72 1.54-1.56 2.03a3.87 3.87 0 0 1-3.35.32c-1.12-.4-2.15-1.49-3.19-3.3-.2-.36-.4-.82-.6-1.18-.49-.84-.74-1.42-.81-1.54l-1.25-2.17.82-.39.88 1.26 10.17-5.63Zm-8.46 9.14c.62 1.08 1.26 1.76 2.02 1.97.76.2 1.5.1 2.34-.4.85-.48 1.31-1.07 1.46-1.64.15-.57-.02-1.43-.58-2.4l-1.18-2.04-4.89 2.66c.09.43.34 1 .83 1.85Zm5.58-4.1.46.93c.42.72 1 1.19 1.58 1.34.66.18 1.31.05 2.15-.44.73-.42 1.16-.91 1.32-1.48.15-.57-.05-1.34-.6-2.3-.22-.36-.52-.75-.7-1.2l-.21-.37-4.56 2.55.56.96ZM618.59 198.4l-.82.38-.86-1.35-10.42 5.06.57 1.67-.82.4-2.28-4.79.81-.4.87 1.36 10.5-5.03-2.62-5.39-10.54 5.12.57 1.68-.82.4-2.3-4.7.81-.39.8 1.23 10.41-5.05-.5-1.56.82-.4 5.82 11.75ZM608.28 207.96a5.56 5.56 0 0 1 1.46-2.77c.82-.8 1.84-1.54 3.11-2.12a7.48 7.48 0 0 1 3.76-.72c1.2.11 2.24.4 3.18 1.05a5.9 5.9 0 0 1 2.06 2.59c.73 1.83.82 3.38.04 4.8-.7 1.44-2.12 2.59-4.07 3.39a8.3 8.3 0 0 1-3.86.7 6.78 6.78 0 0 1-3.27-1.08 6.79 6.79 0 0 1-2.15-2.62 6.37 6.37 0 0 1-.26-3.22Zm10.16-3.7c-1.26-.23-2.77.07-4.72.88-1.73.76-2.98 1.64-3.67 2.68-.68 1.04-.87 2.1-.37 3.26a3.3 3.3 0 0 0 2.62 2.03c1.26.23 2.87-.05 4.72-.88 1.73-.76 2.98-1.64 3.67-2.68.68-1.04.77-2.14.36-3.26a3.29 3.29 0 0 0-2.61-2.03ZM618.2 220.39c-1.73.35-3.1.5-4.07.34-.48-.13-.95-.26-1.19-.52a2.5 2.5 0 0 1-.74-1.02c-.25-.57-.34-1-.36-1.32l1.4-.64c.01.3.2.77.45 1.34.04.22.2.36.37.51.17.15.36.2.64.27 1.74.37 4.75-.25 8.96-1.88l1.37-.54-.56-2.09.9-.37 3.83 10.1-.92.36-.8-1.54-10.89 4.1.45 1.76-.89.27-2-5.43.88-.27.86 1.76 10.88-4.12-1.3-3.5-1.6.6a25.2 25.2 0 0 1-5.68 1.83ZM629.27 228.45l-.3-1.5.88-.28 2.98 9.05-2.65 1.12-.34-1 1.52-1.12-1.35-4.44-5.02 1.6 1.05 2.94 1.58-.19.34 1-4.13 1.35-.34-1.01 1.42-.74-.93-3-5.25 1.75 1.82 4.97 2.6.19v1.12l-3.27.44-3.27-9.83.88-.28.65 1.4 11.13-3.54ZM634.06 243.28l-1.02-3.02-4 .46-.29-1.2 4.87-1.04 3.2 11.24-4.8 1.57-.32-1.1 3.6-1.68-.77-3.17-11.35 3.18.53 2.58-.88.27-1.94-6.83.89-.27.82 2.26 11.46-3.25ZM631.12 259.2l-.18-.86c-.23-.27-.7-.4-1.37-.58-.67-.17-1.45-.28-2.43-.44-.98-.16-1.64-.34-2.12-.47-.47-.13-.73-.3-.77-.51l-.56-2.5.86-.17.33.7c.07.12.32.29.68.49.38.1.95.25 1.68.55l2.28.61c.55.25 1 .47 1.33.76.04-.9.34-1.64.8-2.23a3.86 3.86 0 0 1 2.17-1.25c1.41-.33 2.58-.12 3.3.58a7.1 7.1 0 0 1 1.71 3.51c.12.34.18.87.24 1.4.04.61.13 1.04.24 1.38l.63 2.61-.9.28-.61-1.5-11.31 2.68.26 1.7-.84.08-1.32-5.35.87-.17.56 1.68 4.8-1.16-.33-1.82Zm7-.27c-.07-.52-.13-1.05-.22-1.48a3.73 3.73 0 0 0-1.09-2.02c-.49-.44-1.3-.45-2.28-.2-.99.24-1.7.66-2.08 1.27-.37.61-.47 1.4-.23 2.38.25.99.38 1.63.52 1.87l5.56-1.36-.18-.46ZM640.3 269.4l-.68-3.14-4.02.15-.2-1.17 4.96-.61 2.24 11.4-4.89 1.13-.2-1.17 3.73-1.35-.47-3.18-11.59 2.2.32 2.62-.87.18-1.38-7 .86-.17.7 2.33 11.5-2.22ZM630.94 286.86c.47-1 1.22-1.92 2.19-2.47a9.42 9.42 0 0 1 3.6-1.28 7.3 7.3 0 0 1 3.76.4 6.64 6.64 0 0 1 2.8 2.07 6.32 6.32 0 0 1 1.36 3.32c.15.96.16 2.08 0 3.46l-.07.6-3.32.23-.17-1.27 2.26-.82c.15-.17.25-.55.25-.95.01-.4.07-1-.09-1.56a3.48 3.48 0 0 0-1-2 4.79 4.79 0 0 0-2.21-1.2c-.95-.25-1.98-.22-3.22-.15-1.18.2-2.16.44-3.1.9s-1.59 1-2.08 1.69a3.54 3.54 0 0 0-.54 2.4c.13.64.2 1.17.4 1.53.12.34.35.6.59.87l1.9.51-.02 1.22-2.72-.12c-.05-.22-.13-.65-.41-1.13-.19-.46-.4-.82-.48-1.25-.1-.43-.27-.89-.31-1.5.02-1.22.13-2.42.63-3.5ZM645.84 300.42l-.93.06-.42-1.85-9.4.85 2.4 1.35 7.07 4.75.53-.06.05-1.72.93-.06.47 5.12-.94.06-.33-1.42-11.6 1.07-.02 1.62-.93.06-.44-5.21.93-.06.38 1.63 9.49-.82-2.32-1.23-7.15-4.87-.62.04-.05 1.72-.93.05-.44-5.2.93-.06.3 1.5 11.6-1.06.1-1.5.93-.06.41 5.3ZM647.12 320.73l-4.87.32-.08-1.24 3.76-.72-.02-4.08-11.75.51-.06 3.25-.93.06-.38-7.34.93-.05.28 2 11.56-.56.13-2 .93-.06.5 9.91ZM646.04 324l.2-1.47.9.04-.04 5.08-.9-.04-.2-1.58h-4.98l-.04 6.6 4.99.01.19-1.47.9.04v4.98l-.91-.04-.22-1.48-11.62.04-.2 1.48-.9-.04.01-4.99.91.04.19 1.58 5.4.02.03-6.6-5.4-.03-.2 1.57-.91-.04-.06-5.1.9.03.22 1.49 11.74-.11ZM647.08 342.93l-.03 2.02-13.07 3.94-.21 1.16-.91-.04.2-4.94.9.04.1 1.56 2.86-.77.23-5.43-2.68-1.03-.22 1.57-.9-.03.17-4.44.9.04.1 1.15 12.56 5.2Zm-3.05 1.11 1.63-.38-1.68-.55-5.93-2.2-.25 4.72 6.23-1.59ZM637.45 355.32c-1.71-.46-2.92-.89-3.77-1.52-.42-.32-.75-.61-.87-.95-.2-.36-.2-.77-.2-1.17.06-.6.07-1 .24-1.26h1.53c-.08.28-.1.78-.17 1.38-.05.2 0 .4.14.65.04.21.2.36.47.53 1.34 1.07 4.4 1.8 8.88 2.18l1.5.1.38-2.15.9.04-.94 10.75-.9-.04-.05-1.74-11.53-1.06-.4 1.84-.9-.04.53-5.77.9.04v1.93l11.53 1.06.3-3.8-1.7-.14c-2.28-.2-4.23-.53-5.87-.86ZM639.09 371.24c-.2 1.47-.71 2.66-1.6 3.34-.8.7-1.88.92-3.17.78a4.15 4.15 0 0 1-3.07-1.84 5.38 5.38 0 0 1-.63-3.74c.05-.19.1-.38.06-.6-.05-.2.1-.37.18-.66.17-.66.26-1.35.4-1.92l.39-2.55.88.13-.03 1.63 11.57 1.67.5-1.5.88.14-.8 5.28-.88-.13-.12-1.87-4.3-.64-.26 2.48Zm-7.23-2.65c-.06.19-.16.57-.16.97-.19 1.07.01 1.84.55 2.5a3.14 3.14 0 0 0 2.34 1.13c.98.16 1.84-.02 2.38-.48.62-.45.92-1.18 1.1-2.25l.3-1.86-6.28-.87-.23.86Zm10.94 15.05-.88-.13.05-1.72-11.48-1.65-.46 1.7-.88-.13.74-5.4.88.13-.05 1.72 11.47 1.65.46-1.71.88.13-.73 5.4ZM639.98 391.85l.58-1.38.85.23-1.13 5-.86-.23.13-1.6-4.9-1.1-1.42 6.44 4.9 1.1.57-1.37.85.23-1.1 4.9-.86-.23.1-1.5-11.37-2.44-.48 1.4-.86-.23 1.11-4.9.86.23-.1 1.5 5.3 1.12 1.43-6.44-5.3-1.12-.53 1.6-.86-.24 1.13-5 .86.24-.1 1.5 11.2 2.29ZM636.95 410.39l-.53 2-13.58 1.25-.5 1.09-.85-.23 1.18-4.78.85.23-.21 1.57 2.89-.14 1.3-5.25-2.46-1.48-.6 1.47-.85-.23 1.05-4.3.86.23-.12 1.2 11.57 7.37Zm-3.16.38 1.75-.05-1.52-.81-5.33-3.26-1.13 4.58 6.24-.47ZM631.43 425.3l.91-1.89.83.33-1.56 4.67-8.8-.22-2.4-.13 2.1 1.27 7.16 5.18-1.56 4.68-.83-.32.44-2.03-11.5-2.27-.7 1.45-.83-.33 1.68-5.15.84.33-.34 1.64 8.25 1.9 3.56.76-2.3-1.64-8.26-6.08.4-1.12H628l3.74.08-3.36-1.51-7.75-3.4-.77 1.73-.83-.33 1.54-4.58.83.33-.32 1.54 10.35 5.12Z" fill="#000"/><path d="m625.5 445.92-.73 1.95-13.62-.5-.56.98-.83-.33 1.84-4.6.83.33-.4 1.52 2.9.17 1.97-5.08-2.26-1.83-.79 1.42-.83-.32 1.63-4.15.83.32-.22 1.17 10.24 8.95Zm-3.25-.05 1.7.15-1.38-.98-4.85-3.95-1.7 4.44 6.23.34ZM620.43 454.95l.83-1.2.83.32-1.02 2.28c-.22.45-.32.83-.52 1.18-.27.64-.42 1.21-.67 1.76-.75 1.63-1.53 2.65-2.47 3.1a4 4 0 0 1-3.21-.14 5.1 5.1 0 0 1-2.1-1.68 4.57 4.57 0 0 1-.77-2.45c-.06-.93.2-1.88.64-2.78.2-.36.27-.64.47-1 .2-.35.25-.54.37-.61l-3.74-1.62-1.21 2.23-.83-.33 2.5-5.54.83.32-.5 1.5 10.57 4.66Zm-7.56.83a3.3 3.3 0 0 0-.19 2.6c.28.89 1.03 1.5 2.3 2.04 1 .47 1.81.49 2.4.23.69-.32 1.18-1 1.65-2 .2-.35.3-.73.42-1.2l.16-.58-6.12-2.65c-.07.28-.32.83-.62 1.56ZM603.96 462.05a6.46 6.46 0 0 1 3.19-.88 8.4 8.4 0 0 1 3.7 1 7.44 7.44 0 0 1 2.92 2.4 6.25 6.25 0 0 1 1.17 3.28 6.13 6.13 0 0 1-.73 3.47c-.45.9-1.1 1.84-1.91 2.95l-.34.52-2.94-1.6.5-1.1 2.37.64c.22-.04.49-.28.78-.6.29-.33.51-.78.86-1.3.39-.71.47-1.4.3-2.26a4.9 4.9 0 0 0-1.14-2.24 9.86 9.86 0 0 0-2.64-1.93c-1.09-.5-2.1-.87-3.08-1.03-.98-.16-1.9-.1-2.73.28-.79.3-1.35.87-1.8 1.77-.27.63-.49 1.08-.5 1.49-.1.38-.08.7.03 1.03l1.34 1.48-.66.94-2.22-1.61.31-1.14c.13-.48.13-.88.26-1.36.1-.38.35-.93.6-1.47a7.16 7.16 0 0 1 2.36-2.73ZM604.33 489.55l-.78-.51.77-1.73-8.1-4.72 1.17 2.45 2.95 8.02.44.23 1.08-1.35.78.52-2.6 4.4-.79-.52.58-1.38-10.05-5.84-.95 1.27-.8-.42 2.62-4.5.8.43-.7 1.54 8.17 4.84-1.23-2.27-2.92-8.11-.61-.37-1.1 1.44-.8-.42 2.65-4.59.8.42-.6 1.47 10.05 5.85.93-1.18.78.52-2.54 4.51ZM597.61 500.18c-.24.54-.37 1.02-.57 1.37l-.56.97c-.86 1.3-1.71 2.2-2.62 2.56-.92.37-1.82.33-2.7-.21a3.08 3.08 0 0 1-1.46-2.13 4.41 4.41 0 0 1 .28-2.57c-.66.94-1.44 1.55-2.3 1.73-.86.17-1.65.06-2.42-.45-1.14-.71-1.82-1.6-1.92-2.75-.12-1.06.24-2.39 1.26-3.94.37-.62.81-1.11 1.25-1.6.41-.4.8-.7 1.06-.94.27-.24.42-.4.51-.38l2.52 2-.51.78-2.3-.92c-.6.35-1.16.91-1.82 1.86a2.49 2.49 0 0 0-.44 2.02c.13.64.7 1.2 1.57 1.74.61.37 1.27.55 2.02.44.74-.1 1.4-.64 1.93-1.52l.71-1.13.88.54-.54.87c-.32.43-.45.9-.58 1.38-.03.5.04 1.02.22 1.48.18.46.58.87 1.1 1.21.68.5 1.38.57 1.93.42.55-.16 1.08-.63 1.57-1.31.32-.43.54-.88.55-1.28.1-.38.08-.7-.06-.94l-1.3-1.26.67-.94 2.48 1.38c-.06.6-.25.95-.4 1.52ZM587.83 513.14l1.11-1.13.78.52-1.46 2.05c-.3.33-.52.78-.89 1.4-.34.51-.54.87-.7 1.13-.99 1.36-1.93 2.23-2.82 2.5-.89.27-1.77.14-2.52-.47a3.27 3.27 0 0 1-1.4-2c-.2-.77-.1-1.56.23-2.39a4.46 4.46 0 0 1-2.32 1.83c-.86.17-1.74.04-2.5-.57a4 4 0 0 1-1.67-2.9c-.1-1.14.4-2.64 1.65-4.24.3-.33.49-.68.78-1.01.61-.75.95-1.27 1.07-1.34l1.47-2.06.78.52-.76 1.32 9.17 6.84Zm-11.92-3.8a4.35 4.35 0 0 0-1.02 2.68c0 .71.52 1.46 1.3 1.97.75.61 1.51.82 2.16.68.65-.13 1.3-.67 1.93-1.51.79-1.02 1.18-1.73 1.35-1.99l-4.53-3.25c-.12.07-.56.57-1.19 1.41Zm6.06 3.25-.64.85c-.49.68-.67 1.34-.53 2 .13.64.57 1.27 1.25 1.75.69.5 1.35.67 1.98.63.55-.15 1.17-.6 1.84-1.54.29-.33.5-.78.7-1.13l.2-.36-4.17-3.05c-.05.19-.32.42-.63.85ZM579.05 526.88l-1.24 1.6-12.96-4.49-.82.8-.76-.6 3.08-3.87.75.6-.86 1.3 2.68 1.03 3.4-4.29-1.62-2.36-1.11 1.12-.76-.6 2.76-3.44.75.6-.59 1.07 7.3 11.53Zm-3.08-1.03 1.56.62-1.05-1.4-3.5-5.21-2.92 3.7 5.9 2.3ZM561.7 527.02a6.18 6.18 0 0 1 3.36-.02 9.2 9.2 0 0 1 3.36 1.92 7.16 7.16 0 0 1 2.24 3.05c.41 1.13.51 2.27.3 3.44a6.98 6.98 0 0 1-1.56 3.15c-.6.75-1.52 1.52-2.56 2.36l-.51.38-2.42-2.38.85-.9 2.13 1.19c.21-.05.55-.16.94-.47.36-.2.77-.6 1.11-1.12.56-.57.86-1.3.87-2.11.11-.79-.09-1.55-.58-2.4a7.96 7.96 0 0 0-2.08-2.5 9.97 9.97 0 0 0-2.69-1.73 5.82 5.82 0 0 0-2.64-.4c-.84.08-1.56.5-2.17 1.25-.44.5-.76.92-.86 1.3-.2.35-.18.66-.25.95l.85 1.75-.92.78-1.68-2.09c.14-.16.34-.51.59-1.06.22-.45.42-.8.61-1.16.2-.35.52-.78.96-1.27a5.44 5.44 0 0 1 2.75-1.91ZM557.78 546.95a5.7 5.7 0 0 1 .1 3.08c-.26.95-.7 1.85-1.5 2.56a5.84 5.84 0 0 1-2.8 1.69c-.98.25-2.08.16-3.1-.22a9.95 9.95 0 0 1-3.05-1.94 8.09 8.09 0 0 1-2.25-3.35 5.67 5.67 0 0 1-.33-3.35 5.9 5.9 0 0 1 1.48-2.86 6.86 6.86 0 0 1 2.82-1.8 5.33 5.33 0 0 1 3.1.23 9.93 9.93 0 0 1 3.05 1.93l2.11-2.18-3.97-3.81-1.28.98-.63-.68 3.55-3.74.65.59-.95 1.27 8.34 8.04 1.16-.91.63.68-3.52 3.64-.63-.68.95-1.27-3.64-3.52-2.11 2.18a10.07 10.07 0 0 1 1.82 3.44Zm-1.17 1.72c-.3-1.2-1.15-2.54-2.6-3.95a7.8 7.8 0 0 0-3.88-2.26 3.36 3.36 0 0 0-3.22.97c-.85.9-1.1 1.84-.81 3.04.29 1.2 1.15 2.55 2.7 3.98 1.29 1.26 2.52 2 3.75 2.33a2.94 2.94 0 0 0 3.1-.9c.85-.9 1.13-1.94.96-3.2ZM539.51 557.74c-.78-.1-1.83-.39-3.06-.72l-2-.53c-.38-.1-.7-.09-.93.05l-.7.33-.63-.68 1.65-1.6c.24-.14.57-.25 1.24-.07l2.57.69c1.2.42 2.16.68 2.94.78.67.18 1.2.12 1.49-.2l.82-.8-3.63-3.93-1.38.95-.63-.68 3.78-3.47.63.68-1.02 1.16 7.9 8.53 1.25-.89.64.68-3.66 3.4-.64-.68.96-1.27-3.64-3.93-1.2 1.1.88 6.56 1.26-.89.63.68-3.4 3.16-.63-.67.93-1.18-.74-6.72c-.18.26-.9.27-1.68.16ZM530.23 558.92a4.91 4.91 0 0 1 3.1.63 8.98 8.98 0 0 1 2.91 2.4 8.11 8.11 0 0 1 1.83 3.45c.3 1.2.3 2.32-.08 3.34a6.37 6.37 0 0 1-1.86 2.76 5.72 5.72 0 0 1-4.58 1.52c-1.57-.21-3.04-1.22-4.54-2.84a8.12 8.12 0 0 1-1.83-3.44c-.28-1.2-.29-2.32.11-3.44a5.3 5.3 0 0 1 1.86-2.76c1-1.06 2.03-1.5 3.08-1.62Zm6.56 8.59c-.16-1.27-.9-2.7-2.24-4.17a8.62 8.62 0 0 0-3.65-2.71 3.1 3.1 0 0 0-3.21.57 3.2 3.2 0 0 0-1.13 3.05c.17 1.27.91 2.7 2.22 4.27a8.63 8.63 0 0 0 3.66 2.7c1.23.34 2.3.12 3.23-.65.92-.78 1.3-1.8 1.12-3.07ZM528.1 576.38l1.33-.76.6.77-1.93 1.52c-.36.2-.77.6-1.21 1.1-.41.4-.8.7-1.04.84-1.4 1.05-2.46 1.58-3.4 1.64a2.71 2.71 0 0 1-2.34-1.14 3.33 3.33 0 0 1 .08-4.46 4 4 0 0 1-2.74 1.1 3.06 3.06 0 0 1-2.32-1.23 4.16 4.16 0 0 1-.85-3.29c.2-1.16 1.16-2.44 2.7-3.65.4-.3.76-.51 1.02-.75.78-.6 1.26-.88 1.4-1.05l1.94-1.52.51.75-1.12 1.13 7.37 9Zm-10.38-6.86c-1.02.75-1.53 1.53-1.64 2.31-.11.79.1 1.56.7 2.33s1.22 1.14 1.91 1.23c.7.08 1.39-.24 2.28-.92a10.3 10.3 0 0 0 1.84-1.54l-3.4-4.38c-.39-.1-.9.27-1.7.97Zm4.93 4.79-.78.6a2.81 2.81 0 0 0-1.1 1.85c-.09.69.14 1.36.77 2.04.54.65 1.16 1.02 1.75 1.08.6.06 1.3-.26 2.2-.94.38-.3.67-.64 1.06-.94l.26-.23-3.17-4.11c-.34.11-.6.34-1 .65Z" fill="#000"/><circle cx="113.44" cy="108.39" r="2" fill="#000" style="mix-blend-mode:overlay"/><circle cx="517.94" cy="82.77" r="2" fill="#000" style="mix-blend-mode:overlay"/></g></g></svg>